<svg width="20" height="20" viewBox="0 0 20 20" fill="none" xmlns="http://www.w3.org/2000/svg">
<g clip-path="url(#clip0_2655_113)">
<path d="M15.21 12.761C15.21 13.601 15.449 13.936 16.074 13.936C17.467 13.936 18.354 12.161 18.354 9.209C18.354 4.697 15.066 2.537 10.961 2.537C6.738 2.537 2.897 5.369 2.897 10.721C2.897 15.833 6.257 18.617 11.417 18.617C13.169 18.617 14.345 18.425 16.144 17.825L16.53 19.432C14.754 20.009 12.856 20.176 11.393 20.176C4.625 20.176 1 16.456 1 10.72C1 4.936 5.201 1 10.985 1C17.009 1 20.2 4.6 20.2 9.016C20.2 12.76 19.025 15.616 15.329 15.616C13.648 15.616 12.545 14.944 12.401 13.455C11.969 15.111 10.817 15.616 9.256 15.616C7.168 15.616 5.416 14.007 5.416 10.768C5.416 7.504 6.953 5.488 9.713 5.488C11.177 5.488 12.089 6.064 12.495 6.976L13.192 5.704H15.208V12.761H15.21ZM12.259 9.593C12.259 8.274 11.274 7.721 10.458 7.721C9.57 7.721 8.587 8.44 8.587 10.553C8.587 12.233 9.331 13.169 10.458 13.169C11.25 13.169 12.259 12.665 12.259 11.273V9.593Z" fill="black"/>
</g>
<defs>
<clipPath id="clip0_2655_113">
<rect width="20" height="20" fill="white"/>
</clipPath>
</defs>
</svg>
