<svg width="24" height="24" viewBox="0 0 24 24" fill="none" xmlns="http://www.w3.org/2000/svg">
<path d="M12 11C13.0609 11 14.0783 10.5786 14.8284 9.82843C15.5786 9.07828 16 8.06087 16 7C16 5.93913 15.5786 4.92172 14.8284 4.17157C14.0783 3.42143 13.0609 3 12 3C10.9391 3 9.92172 3.42143 9.17157 4.17157C8.42143 4.92172 8 5.93913 8 7C8 8.06087 8.42143 9.07828 9.17157 9.82843C9.92172 10.5786 10.9391 11 12 11ZM8.62 12.922L8.994 12.373C9.90323 12.7861 10.8903 12.9999 11.889 13H12.112C12.9684 12.9999 13.8174 12.8426 14.617 12.536L14.88 12.922C15.002 13.102 15.125 13.452 15.207 13.895C15.287 14.322 15.309 14.727 15.294 14.95C15.2881 15.0516 15.3017 15.1535 15.334 15.25H14.956C14.8114 15.2502 14.6699 15.2916 14.5481 15.3693C14.4262 15.4471 14.3291 15.558 14.268 15.689L13.577 17.169C13.523 17.2848 13.4991 17.4124 13.5075 17.5399C13.5159 17.6674 13.5563 17.7907 13.625 17.8985C13.6937 18.0062 13.7884 18.0949 13.9005 18.1564C14.0125 18.2178 14.1382 18.25 14.266 18.25H15.4V16.75H16.65V18.25H17.734C17.8618 18.25 17.9875 18.2178 18.0995 18.1564C18.2116 18.0949 18.3063 18.0062 18.375 17.8985C18.4437 17.7907 18.4841 17.6674 18.4925 17.5399C18.5009 17.4124 18.477 17.2848 18.423 17.169L17.733 15.689C17.6718 15.5577 17.5743 15.4466 17.4521 15.3688C17.3298 15.291 17.1879 15.2498 17.043 15.25H16.75C16.7718 15.1853 16.7853 15.1181 16.79 15.05C16.816 14.672 16.778 14.138 16.682 13.62C16.589 13.118 16.42 12.519 16.12 12.078L16.071 12.006C16.1216 12.0021 16.1723 12.0001 16.223 12C16.8503 12 17.4715 12.1236 18.0511 12.3636C18.6307 12.6037 19.1573 12.9556 19.6008 13.3992C20.0444 13.8427 20.3963 14.3693 20.6364 14.9489C20.8764 15.5285 21 16.1497 21 16.777V21H3V16.777C3 14.257 4.95 12.193 7.424 12.013L7.38 12.078C6.789 12.947 6.699 14.024 6.772 14.888C6.797 15.185 6.842 15.478 6.904 15.754C6.6572 15.9733 6.48965 16.2679 6.42733 16.5922C6.36502 16.9164 6.41142 17.2521 6.55935 17.5473C6.70727 17.8425 6.94845 18.0806 7.24549 18.2248C7.54252 18.3689 7.87882 18.411 8.20224 18.3446C8.52565 18.2781 8.8181 18.1068 9.03425 17.8573C9.2504 17.6077 9.37817 17.2938 9.39774 16.9642C9.41731 16.6346 9.32759 16.3078 9.1425 16.0344C8.95741 15.7609 8.68728 15.5562 8.374 15.452C8.32196 15.2248 8.28587 14.9942 8.266 14.762C8.206 14.056 8.306 13.383 8.62 12.922Z" fill="#5CB15A"/>
</svg>
