<svg width="24" height="24" viewBox="0 0 24 24" fill="none" xmlns="http://www.w3.org/2000/svg">
<path d="M21.96 10.97C22.013 11.8 22.013 12.66 21.96 13.49C21.686 17.733 18.354 21.113 14.17 21.39C12.7249 21.4852 11.2751 21.4852 9.82997 21.39C9.31999 21.3552 8.81859 21.2408 8.34397 21.051C7.83197 20.841 7.57597 20.735 7.44497 20.751C7.31497 20.767 7.12597 20.906 6.74897 21.185C6.08297 21.675 5.24397 22.029 3.99897 21.998C3.36997 21.983 3.05597 21.975 2.91497 21.735C2.77397 21.495 2.94897 21.163 3.29997 20.498C3.78697 19.576 4.09497 18.52 3.62797 17.675C2.82297 16.467 2.13997 15.036 2.03997 13.491C1.987 12.6518 1.987 11.8101 2.03997 10.971C2.31397 6.72798 5.64597 3.34898 9.82997 3.07098C11.032 2.99098 11.281 2.97898 12.5 3.03398" stroke="black" stroke-width="1.5" stroke-linecap="round" stroke-linejoin="round"/>
<path d="M22 5.5C22 6.42826 21.6313 7.3185 20.9749 7.97487C20.3185 8.63125 19.4283 9 18.5 9C17.5717 9 16.6815 8.63125 16.0251 7.97487C15.3687 7.3185 15 6.42826 15 5.5C15 4.57174 15.3687 3.6815 16.0251 3.02513C16.6815 2.36875 17.5717 2 18.5 2C19.4283 2 20.3185 2.36875 20.9749 3.02513C21.6313 3.6815 22 4.57174 22 5.5Z" stroke="black" stroke-width="1.5" stroke-linecap="round" stroke-linejoin="round"/>
</svg>
