<svg width="27" height="26" viewBox="0 0 27 26" fill="none" xmlns="http://www.w3.org/2000/svg">
<g clip-path="url(#clip0_2655_115)">
<path d="M26.5943 9.76918L24.3263 12.0479C21.6197 9.33056 17.8754 7.65096 13.7566 7.65096C9.63787 7.65096 5.89355 9.33056 3.18694 12.0479L0.918945 9.76918C4.20325 6.47418 8.73923 4.44154 13.7566 4.44154C18.774 4.44154 23.31 6.47418 26.5943 9.76918ZM26.5943 21.5585V24.7679C26.5943 25.3563 26.1129 25.8377 25.5245 25.8377H21.2453C20.6569 25.8377 20.1755 25.3563 20.1755 24.7679V21.5585C20.1755 20.9701 20.6569 20.4886 21.2453 20.4886V19.4188C21.2453 18.2421 22.2081 17.2792 23.3849 17.2792C24.5617 17.2792 25.5245 18.2421 25.5245 19.4188V20.4886C26.1129 20.4886 26.5943 20.9701 26.5943 21.5585ZM24.4547 19.4188C24.4547 18.8304 23.9733 18.349 23.3849 18.349C22.7965 18.349 22.3151 18.8304 22.3151 19.4188V20.4886H24.4547V19.4188ZM5.45493 14.3052L7.72292 16.5732C8.51472 15.7798 9.4552 15.1503 10.4905 14.7207C11.5259 14.2912 12.6357 14.07 13.7566 14.0698C16.1102 14.0698 18.2498 15.0326 19.7903 16.5839L22.0583 14.3159C19.9401 12.1762 16.9981 10.8604 13.7566 10.8604C10.5151 10.8604 7.57314 12.1762 5.45493 14.3052ZM13.7566 17.2792C12.2803 17.2792 10.943 17.8783 9.98021 18.8411L13.7566 22.6283L17.533 18.8411C17.0374 18.3451 16.4486 17.9517 15.8006 17.6837C15.1525 17.4157 14.4579 17.2782 13.7566 17.2792Z" fill="black"/>
</g>
<defs>
<clipPath id="clip0_2655_115">
<rect width="25.6754" height="25.6754" fill="white" transform="translate(0.918945 0.162323)"/>
</clipPath>
</defs>
</svg>
