<svg width="24" height="24" viewBox="0 0 24 24" fill="none" xmlns="http://www.w3.org/2000/svg">
<path d="M8.35003 3.00003C9.53003 2.83003 10.78 4.12003 11.14 5.90003C11.5 7.67003 10.85 9.25003 9.67003 9.43003C8.50003 9.61003 7.24003 8.32003 6.87003 6.54003C6.50003 4.77003 7.17003 3.19003 8.35003 3.00003ZM15.5 3.00003C16.69 3.19003 17.35 4.77003 17 6.54003C16.62 8.32003 15.37 9.61003 14.19 9.43003C13 9.25003 12.35 7.67003 12.72 5.90003C13.08 4.12003 14.33 2.83003 15.5 3.00003ZM3.00003 7.60003C4.14003 7.11003 5.69003 8.00003 6.50003 9.55003C7.26003 11.13 7.00003 12.79 5.87003 13.28C4.74003 13.77 3.20003 12.89 2.41003 11.32C1.62003 9.75003 1.90003 8.08003 3.00003 7.60003ZM21 7.60003C22.1 8.08003 22.38 9.75003 21.59 11.32C20.8 12.89 19.26 13.77 18.13 13.28C17 12.79 16.74 11.13 17.5 9.55003C18.31 8.00003 19.86 7.11003 21 7.60003ZM19.33 18.38C19.37 19.32 18.65 20.36 17.79 20.75C16 21.57 13.88 19.87 11.89 19.87C9.90003 19.87 7.76003 21.64 6.00003 20.75C5.00003 20.26 4.31003 18.96 4.44003 17.88C4.62003 16.39 6.41003 15.59 7.47003 14.5C8.88003 13.09 9.88003 10.44 11.89 10.44C13.89 10.44 14.95 13.05 16.3 14.5C17.41 15.72 19.26 16.75 19.33 18.38Z" fill="black"/>
</svg>
