<svg width="24" height="23" viewBox="0 0 24 23" fill="none" xmlns="http://www.w3.org/2000/svg">
<path d="M0.73999 11.4699C0.73999 9.42994 1.24999 7.53994 2.25999 5.80994C3.26999 4.07994 4.63999 2.70994 6.36999 1.69994C8.09999 0.689941 9.97999 0.189941 12.01 0.189941C13.53 0.189941 14.99 0.489941 16.38 1.07994C17.77 1.66994 18.96 2.47994 19.97 3.47994C20.98 4.47994 21.78 5.67994 22.37 7.07994C22.96 8.47994 23.26 9.92994 23.26 11.4699C23.26 12.9899 22.96 14.4499 22.37 15.8399C21.78 17.2299 20.97 18.4299 19.97 19.4299C18.97 20.4299 17.77 21.2299 16.38 21.8199C14.99 22.4099 13.54 22.7099 12.01 22.7099C10.48 22.7099 9.00999 22.4099 7.61999 21.8199C6.22999 21.2299 5.02999 20.4199 4.01999 19.4199C3.00999 18.4199 2.21999 17.2199 1.61999 15.8399C1.01999 14.4599 0.73999 12.9999 0.73999 11.4699ZM3.21999 11.4699C3.21999 13.8399 4.07999 15.8999 5.80999 17.6499C7.53999 19.3799 9.59999 20.2399 12.01 20.2399C13.59 20.2399 15.06 19.8499 16.4 19.0599C17.74 18.2699 18.82 17.2099 19.61 15.8599C20.4 14.5099 20.8 13.0499 20.8 11.4699C20.8 9.88994 20.4 8.41994 19.61 7.06994C18.82 5.71994 17.75 4.64994 16.4 3.85994C15.05 3.06994 13.59 2.67994 12.01 2.67994C10.43 2.67994 8.95999 3.06994 7.61999 3.85994C6.27999 4.64994 5.19999 5.71994 4.39999 7.06994C3.59999 8.41994 3.21999 9.88994 3.21999 11.4699ZM7.13999 9.40994C7.10628 9.30598 7.09509 9.19603 7.10716 9.0874C7.11923 8.97878 7.15428 8.87397 7.20999 8.77994C7.31999 8.57994 7.48999 8.44994 7.71999 8.37994C7.94999 8.30994 8.15999 8.33994 8.35999 8.44994L11.14 10.0199V4.80994C11.14 4.57994 11.22 4.37994 11.38 4.21994C11.54 4.05994 11.74 3.97994 11.97 3.97994C12.2 3.97994 12.4 4.05994 12.56 4.21994C12.72 4.37994 12.8 4.57994 12.8 4.80994V11.4799C12.8 11.7099 12.72 11.9099 12.56 12.0699C12.4 12.2299 12.2 12.3099 11.97 12.3099C11.7618 12.3123 11.5609 12.2333 11.41 12.0899L7.52999 9.91994C7.34171 9.80367 7.20287 9.62211 7.13999 9.40994Z" fill="black"/>
</svg>
