<svg width="33" height="31" viewBox="0 0 33 31" fill="none" xmlns="http://www.w3.org/2000/svg">
<path d="M16.5 0C7.402 0 0 6.95339 0 15.5C0 24.0466 7.402 31 16.5 31C25.598 31 33 24.0466 33 15.5C33 6.95339 25.598 0 16.5 0ZM12.5162 8.70534C13.5213 7.70454 14.9357 7.15385 16.5 7.15385C18.0643 7.15385 19.466 7.70827 20.4751 8.71428C21.4976 9.7337 21.995 11.1034 21.8776 12.5759C21.6428 15.5 19.2312 17.8846 16.5 17.8846C13.7688 17.8846 11.3525 15.5 11.1224 12.5751C11.0058 11.0907 11.5024 9.71656 12.5162 8.70534ZM16.5 28.6154C14.6362 28.6165 12.7911 28.266 11.0742 27.5848C9.35726 26.9035 7.80342 25.9054 6.50481 24.6495C7.24853 23.6531 8.19617 22.806 9.29236 22.1575C11.3144 20.9399 13.8735 20.2692 16.5 20.2692C19.1265 20.2692 21.6856 20.9399 23.7053 22.1575C24.8023 22.8057 25.7508 23.6529 26.4952 24.6495C25.1967 25.9055 23.6429 26.9038 21.9259 27.5851C20.209 28.2664 18.3638 28.6167 16.5 28.6154Z" fill="white"/>
</svg>
